<?xml version="1.0" encoding="utf-8"?>
<!-- Generator: Adobe Illustrator 19.2.0, SVG Export Plug-In . SVG Version: 6.00 Build 0)  -->
<svg version="1.1" id="Lager_1" xmlns="http://www.w3.org/2000/svg" xmlns:xlink="http://www.w3.org/1999/xlink" x="0px" y="0px"
	 viewBox="0 0 200 200" style="enable-background:new 0 0 200 200;" xml:space="preserve">
<style type="text/css">
	.st0{fill:#008B7E;}
	.st1{fill-rule:evenodd;clip-rule:evenodd;fill:#FFFFFF;}
</style>
<g>
	<path class="st0" d="M101.5,198h-0.9C46.7,198,3,154.3,3,100.5v-0.9C3,45.7,46.7,2,100.5,2h0.9C155.3,2,199,45.7,199,99.5v0.9
		C199,154.3,155.3,198,101.5,198z"/>
	<g>
		<path class="st1" d="M118.1,57.4h-14.1c-1.8,6.2-7.1,11.1-13.4,12.4l-1.1,13.1h-6.4l2.4-28.8c0.1-1.7,1.5-3,3.2-3h45.3
			c1.8,0,3.3,1.6,3.2,3.4l-2.4,28.4h-6.4l1.1-13C123.3,68.6,118.8,63.7,118.1,57.4L118.1,57.4z M71.9,82.9L74,58.1
			c0.1-1.7,1.5-3,3.2-3h3.5l-2.3,27.8H71.9L71.9,82.9z M60.8,82.9L62.5,62c0.1-1.7,1.5-3,3.2-3h3.5l-2,23.9H60.8L60.8,82.9z
			 M109.9,70.8c6.7,0,11.7,5.4,11.3,12.1H96.6C97.3,76.2,103.2,70.8,109.9,70.8L109.9,70.8z"/>
		<path class="st1" d="M55,87.6h85.8c2.6,0,4.8,2.1,4.8,4.8v11.4l-10.9,4.4c-3,1.2-5,4.1-5,7.4v9.4c0,3.3,2,6.2,5,7.4l10.9,4.4V148
			c0,2.6-2.1,4.8-4.8,4.8H55c-3.1-10.2-4.8-21.1-4.8-32.6C50.1,108.8,51.8,97.8,55,87.6L55,87.6z M149.2,109.1
			c1.5,0.2,2.7,1.6,2.7,3.1v15.9c0,1.6-1.2,2.9-2.7,3.1l-12.2-4.9c-0.7-0.3-1-0.8-1-1.5v-9.4c0-0.7,0.3-1.2,1-1.5L149.2,109.1
			L149.2,109.1z"/>
	</g>
</g>
</svg>
